
<svg xmlns="http://www.w3.org/2000/svg" viewBox="0 0 100 100">
  <path data-name="Compound Path" d="M81.44,68a7.83,7.83,0,1,0-.4-9.05L64.93,46.59a10.52,10.52,0,0,0-1.31-10.81c-.18-.23-.38-.45-.58-.66l9.32-7.6A7.77,7.77,0,1,0,71.06,26l-9.53,7.78a10.54,10.54,0,0,0-11.7-.45L36.63,19.08a8.12,8.12,0,1,0-1.51,1.31L48.23,34.54a10.53,10.53,0,0,0-2.89,10.93L19.43,55.2a7.84,7.84,0,1,0,.64,1.9l26.07-9.78A10.37,10.37,0,0,0,54,52.71l.3,25.65a7.88,7.88,0,1,0,2-.09L56,52.77a10.47,10.47,0,0,0,7.9-4.42L80.15,60.77A7.8,7.8,0,0,0,81.44,68ZM18.18,59.33a5.8,5.8,0,1,1-5.77-6.49,5.94,5.94,0,0,1,.71,0,5.8,5.8,0,0,1,5.06,6.45ZM71.85,21.07A5.8,5.8,0,0,1,77.6,16a5.94,5.94,0,0,1,.71,0,5.8,5.8,0,1,1-6.45,5.06ZM30,19.73a5.8,5.8,0,1,1,4.27-1.2A5.76,5.76,0,0,1,30,19.73ZM60.27,82.45a5.8,5.8,0,1,1-4.57-2.22,5.94,5.94,0,0,1,.71,0A5.76,5.76,0,0,1,60.27,82.45ZM60.61,49a8.52,8.52,0,1,1,3.2-5.68A8.46,8.46,0,0,1,60.61,49ZM84,58.6a5.8,5.8,0,1,1-2.18,3.87A5.77,5.77,0,0,1,84,58.6Z"
  stroke="white" stroke-width="2" fill="none"></path>
</svg>
