<svg xmlns="http://www.w3.org/2000/svg" version="1.1" xmlns:xlink="http://www.w3.org/1999/xlink" width="180" height="180"><svg id="SvgjsSvg1028" data-name="Слой_1" xmlns="http://www.w3.org/2000/svg" xmlns:xlink="http://www.w3.org/1999/xlink" version="1.1" viewBox="0 0 180 180">
  <!-- Generator: Adobe Illustrator 29.6.0, SVG Export Plug-In . SVG Version: 2.1.1 Build 207)  -->
  <defs>
    <style>
      .st0 {
        fill: url(#_Безымянный_градиент);
      }

      .st1 {
        fill: #fff;
        isolation: isolate;
        opacity: .9;
        stroke: #fff;
        stroke-miterlimit: 10;
        stroke-width: 7px;
      }
    </style>
    <linearGradient id="SvgjsLinearGradient1027" data-name="Безымянный градиент" x1="-864.17" y1="628.51" x2="-863.17" y2="627.51" gradientTransform="translate(155551 113131) scale(180 -180)" gradientUnits="userSpaceOnUse">
      <stop offset="0" stop-color="#08c"></stop>
      <stop offset="1" stop-color="#8f5db7"></stop>
    </linearGradient>
  </defs>
  <rect class="st0" width="180" height="180" rx="40" ry="40"></rect>
  <path class="st1" d="M142.23,124.04c4.56,6.05,13,7.14,18.86,2.43,5.86-4.71,6.92-13.43,2.36-19.48-4.56-6.05-13-7.14-18.86-2.43-1.2.96-2.22,2.12-3.05,3.43l-27.66-21.91c2.76-6.32,1.89-13.7-2.25-19.16-.31-.41-.65-.8-1-1.17l16-13.47c5.47,5.1,13.9,4.65,18.84-1,4.94-5.65,4.5-14.36-.97-19.45-5.47-5.1-13.9-4.65-18.84,1-4.06,4.64-4.58,11.52-1.27,16.76l-16.36,13.79c-5.92-4.43-13.85-4.75-20.09-.8l-22.66-25.26c5.15-5.91,4.69-15.01-1.04-20.33-5.72-5.32-14.54-4.84-19.69,1.07-5.15,5.91-4.69,15.01,1.04,20.33,4.75,4.41,11.79,4.93,17.09,1.25l22.51,25.08c-5.16,4.92-7.09,12.47-4.96,19.37l-44.48,17.25c-3.25-6.9-11.31-9.77-17.99-6.41-6.68,3.36-9.46,11.68-6.21,18.58,3.25,6.9,11.31,9.77,17.99,6.41,5.5-2.77,8.5-9.01,7.31-15.21l44.76-17.34c2.73,5.26,7.76,8.82,13.49,9.55l.52,45.47c-7.36,1.32-12.29,8.56-11.01,16.16,1.28,7.6,8.29,12.69,15.65,11.37,7.36-1.32,12.29-8.56,11.01-16.16-1.06-6.26-6.08-11-12.21-11.52l-.52-45.2c5.44-.35,10.43-3.24,13.56-7.83l27.9,22.02c-1.38,4.39-.55,9.19,2.21,12.82ZM33.63,108.68c-.65,5.64-5.61,9.66-11.07,8.98-5.46-.68-9.36-5.79-8.7-11.43.6-5.16,4.83-9.05,9.87-9.06.41-.03.81-.03,1.22,0,5.45.68,9.34,5.8,8.69,11.43v.07ZM125.77,40.86c.63-5.13,4.86-8.98,9.87-8.99.41-.03.81-.03,1.22,0,5.46.68,9.35,5.8,8.7,11.43-.66,5.64-5.61,9.66-11.07,8.98-5.46-.68-9.35-5.8-8.7-11.43,0,0,0,0,0-.01l-.02.02ZM53.92,38.48c-5.46-.67-9.36-5.78-8.71-11.42.65-5.64,5.6-9.67,11.06-8.99,5.46.67,9.36,5.78,8.71,11.42-.31,2.71-1.66,5.18-3.73,6.87-2.07,1.69-4.71,2.46-7.33,2.13ZM105.89,149.66c3.39,4.47,2.64,10.93-1.69,14.43-4.33,3.5-10.59,2.72-13.98-1.74-3.39-4.47-2.64-10.93,1.69-14.43,1.75-1.42,3.91-2.19,6.13-2.19.41-.03.81-.03,1.22,0,2.63.34,5.02,1.76,6.63,3.94ZM106.47,90.37c-6.36,5.15-15.55,4-20.54-2.56-4.99-6.56-3.87-16.06,2.48-21.2,6.36-5.15,15.55-4,20.54,2.56,2.39,3.15,3.48,7.16,3.01,11.14-.45,3.98-2.43,7.6-5.49,10.07ZM146.62,107.38c4.33-3.5,10.59-2.72,13.98,1.75,3.39,4.47,2.63,10.93-1.69,14.43-4.33,3.5-10.59,2.72-13.98-1.75-1.63-2.14-2.37-4.87-2.05-7.57.31-2.71,1.66-5.18,3.74-6.86Z"></path>
</svg><style>@media (prefers-color-scheme: light) { :root { filter: none; } }
@media (prefers-color-scheme: dark) { :root { filter: none; } }
</style></svg>